<svg xmlns="http://www.w3.org/2000/svg" xmlns:xlink="http://www.w3.org/1999/xlink" width="15.1" height="18.527" viewBox="0 0 15.1 18.527">
  <defs>
    <radialGradient id="radial-gradient" cx="0.388" cy="0.291" r="0.641" gradientTransform="matrix(1, 0, 0, 0.98, 0, 0.006)" gradientUnits="objectBoundingBox">
      <stop offset="0" stop-opacity="0.008"/>
      <stop offset="1" stop-opacity="0.102"/>
    </radialGradient>
    <linearGradient id="linear-gradient" x1="1.365" y1="1.34" x2="0.5" y2="-0.529" gradientUnits="objectBoundingBox">
      <stop offset="0"/>
      <stop offset="1" stop-color="#676767"/>
    </linearGradient>
    <filter id="Path_10" x="0" y="0" width="15.1" height="17.998" filterUnits="userSpaceOnUse">
      <feOffset dy="0.3" input="SourceAlpha"/>
      <feGaussianBlur stdDeviation="0.3" result="blur"/>
      <feFlood flood-opacity="0.282"/>
      <feComposite operator="in" in2="blur"/>
      <feComposite in="SourceGraphic"/>
    </filter>
  </defs>
  <g id="Group_33" data-name="Group 33" transform="translate(0 0.527)">
    <rect id="Bounding_Rect" data-name="Bounding Rect" width="15" height="18" fill="none"/>
    <g id="Path_9" data-name="Path 9" transform="translate(0 0.339)" opacity="0.45" fill="url(#radial-gradient)">
      <path d="M14.571,4.211,7.929.376a.859.859,0,0,0-.858,0L.429,4.211A.858.858,0,0,0,0,4.954v7.669a.858.858,0,0,0,.429.743L7.071,17.2a.859.859,0,0,0,.858,0l6.642-3.835A.858.858,0,0,0,15,12.623V4.954A.858.858,0,0,0,14.571,4.211Z" stroke="none"/>
      <path d="M 7.5 0.5612506866455078 C 7.401959896087646 0.5612506866455078 7.305480003356934 0.5870304107666016 7.221010208129883 0.6357994079589844 L 0.5790004730224609 4.470809936523438 C 0.4069099426269531 4.570169448852539 0.3000001907348633 4.755319595336914 0.3000001907348633 4.953999519348145 L 0.3000001907348633 12.62299919128418 C 0.3000001907348633 12.82168006896973 0.4069099426269531 13.0068302154541 0.579010009765625 13.10619926452637 L 7.221000194549561 16.94119071960449 C 7.305480003356934 16.98996925354004 7.401959896087646 17.01574897766113 7.5 17.01574897766113 C 7.598040103912354 17.01574897766113 7.694519996643066 16.98996925354004 7.778989791870117 16.94120025634766 L 14.42099952697754 13.1061897277832 C 14.59309005737305 13.0068302154541 14.69999980926514 12.82168006896973 14.69999980926514 12.62299919128418 L 14.69999980926514 4.953999519348145 C 14.69999980926514 4.755319595336914 14.59309005737305 4.570169448852539 14.42098999023438 4.470799446105957 L 7.778999805450439 0.6358089447021484 C 7.694519996643066 0.5870304107666016 7.598040103912354 0.5612506866455078 7.5 0.5612506866455078 M 7.5 0.2612495422363281 C 7.648250102996826 0.2612495422363281 7.796500205993652 0.29949951171875 7.928999900817871 0.3759994506835938 L 14.57100009918213 4.210999488830566 C 14.83600044250488 4.363999366760254 15 4.646999359130859 15 4.953999519348145 L 15 12.62299919128418 C 15 12.93000030517578 14.83600044250488 13.21299934387207 14.57100009918213 13.36599922180176 L 7.928999900817871 17.20100021362305 C 7.796500205993652 17.27750015258789 7.648250102996826 17.31575012207031 7.5 17.31575012207031 C 7.351749897003174 17.31575012207031 7.203499794006348 17.27750015258789 7.071000099182129 17.20100021362305 L 0.4289999008178711 13.36599922180176 C 0.1639995574951172 13.21299934387207 0 12.93000030517578 0 12.62299919128418 L 0 4.953999519348145 C 0 4.646999359130859 0.1639995574951172 4.363999366760254 0.4289999008178711 4.210999488830566 L 7.071000099182129 0.3759994506835938 C 7.203499794006348 0.29949951171875 7.351749897003174 0.2612495422363281 7.5 0.2612495422363281 Z" stroke="none" fill="rgba(0,0,0,0.1)"/>
    </g>
    <g transform="matrix(1, 0, 0, 1, 0, -0.53)" filter="url(#Path_10)">
      <g id="Path_10-2" data-name="Path 10" transform="translate(-848.6 -82.04)" fill="url(#linear-gradient)">
        <path d="M852.341,98.8l-2.776-1.6a.127.127,0,0,1,0-.222l2.841-1.634a.129.129,0,0,0,.064-.111V91.9a.257.257,0,0,1,.129-.222l2.777-1.6a.129.129,0,0,1,.193.111v6.756a.256.256,0,0,1-.129.222L852.6,98.8a.258.258,0,0,1-.258,0Zm6.973-3.415-2.776-1.6a.128.128,0,0,1,0-.223l3.1-1.782a.129.129,0,0,0,.064-.111v-.445a.131.131,0,0,0-.064-.112l-2.906-1.669a.258.258,0,0,1-.129-.223V82.764a.129.129,0,0,1,.194-.111l2.776,1.6a.258.258,0,0,1,.129.222v3.044a.13.13,0,0,0,.065.112l2.9,1.67a.259.259,0,0,1,.129.223v3.86a.258.258,0,0,1-.129.222l-3.1,1.782a.258.258,0,0,1-.258,0Zm-5.423-5.79-1.291-.743a.256.256,0,0,1-.129-.222V87.144a.258.258,0,0,1,.129-.222l1.291-.743a.263.263,0,0,1,.258,0l1.291.743a.258.258,0,0,1,.129.222v1.485a.256.256,0,0,1-.129.222l-1.291.743a.258.258,0,0,1-.258,0Z" stroke="none"/>
        <path d="M 852.4696655273438 98.52732849121094 L 855.2686767578125 96.91785430908203 L 855.2686767578125 90.48397827148438 L 852.7695922851562 91.92079162597656 L 852.7695922851562 95.23602294921875 C 852.7695922851562 95.38857269287109 852.6876831054688 95.53067016601562 852.5552368164062 95.60715484619141 L 849.9734497070312 97.09165954589844 L 852.4696655273438 98.52732849121094 M 859.4425048828125 95.11238098144531 L 862.4998168945312 93.35462951660156 L 862.4998168945312 89.54482269287109 L 859.6135864257812 87.88600921630859 C 859.4822998046875 87.80878448486328 859.4007568359375 87.66673278808594 859.4007568359375 87.51528930664062 L 859.4007568359375 84.49732971191406 L 856.9016723632812 83.06004333496094 L 856.9016723632812 89.19820404052734 L 859.7861328125 90.85533142089844 L 859.7886352539062 90.85678863525391 L 859.7911376953125 90.85829925537109 C 859.92041015625 90.93597412109375 860.000732421875 91.07748413085938 860.000732421875 91.22760772705078 L 860.000732421875 91.67292785644531 C 860.000732421875 91.82598876953125 859.9183959960938 91.96826934814453 859.7861938476562 92.0440673828125 L 856.9454345703125 93.67720794677734 L 859.4425048828125 95.11238098144531 M 854.0191040039062 89.32231140136719 L 855.2686767578125 88.6036376953125 L 855.2686767578125 87.16961669921875 L 854.0191040039062 86.45094299316406 L 852.7695922851562 87.169677734375 L 852.7695922851562 88.60356903076172 L 854.0191040039062 89.32231140136719 M 852.4696655273438 98.83382415771484 C 852.4249877929688 98.83382415771484 852.3803100585938 98.82225036621094 852.3405151367188 98.79911804199219 L 849.5647583007812 97.20269775390625 C 849.4779663085938 97.15338897705078 849.4779663085938 97.0299072265625 849.5647583007812 96.9805908203125 L 852.4057006835938 95.34708404541016 C 852.4449462890625 95.32440948486328 852.4696044921875 95.28120422363281 852.4696044921875 95.23602294921875 L 852.4696044921875 91.89505004882812 C 852.4696044921875 91.80360412597656 852.519287109375 91.71828460693359 852.5988159179688 91.67292785644531 L 855.37548828125 90.07650756835938 C 855.3961791992188 90.06459808349609 855.4181518554688 90.05915832519531 855.4395751953125 90.05915832519531 C 855.5068359375 90.05915832519531 855.5686645507812 90.11275482177734 855.5686645507812 90.18756866455078 L 855.5686645507812 96.94350433349609 C 855.5686645507812 97.03513336181641 855.5191650390625 97.12043762207031 855.4395751953125 97.16563415527344 L 852.5988159179688 98.79911804199219 C 852.5590209960938 98.82225036621094 852.5143432617188 98.83382415771484 852.4696655273438 98.83382415771484 Z M 859.4425048828125 95.41886138916016 C 859.3978271484375 95.41886138916016 859.3531494140625 95.40728759765625 859.3133544921875 95.38417053222656 L 856.53759765625 93.78883361816406 C 856.4508056640625 93.73843383789062 856.4508056640625 93.61494445800781 856.53759765625 93.56562805175781 L 859.6366577148438 91.78398895263672 C 859.6759033203125 91.76148986816406 859.7007446289062 91.71828460693359 859.7007446289062 91.67292785644531 L 859.7007446289062 91.22760772705078 C 859.7007446289062 91.18134307861328 859.6759033203125 91.1390380859375 859.6366577148438 91.11546325683594 L 856.730712890625 89.44596862792969 C 856.6513671875 89.39970397949219 856.6016845703125 89.31546783447266 856.6016845703125 89.22276306152344 L 856.6016845703125 82.76418304443359 C 856.6016845703125 82.68926239013672 856.6634521484375 82.63574981689453 856.7311401367188 82.63574981689453 C 856.7527465820312 82.63574981689453 856.77490234375 82.64119720458984 856.7958984375 82.65312194824219 L 859.5716552734375 84.24954223632812 C 859.6510620117188 84.29581451416016 859.7007446289062 84.38004302978516 859.7007446289062 84.47166442871094 L 859.7007446289062 87.51528930664062 C 859.7007446289062 87.56155395507812 859.7255859375 87.60384368896484 859.7656860351562 87.62743377685547 L 862.6705322265625 89.29692840576172 C 862.7501220703125 89.34317779541016 862.7998046875 89.42849731445312 862.7998046875 89.52013397216797 L 862.7998046875 93.38040924072266 C 862.7998046875 93.47203063964844 862.7501220703125 93.5562744140625 862.6705322265625 93.60252380371094 L 859.5716552734375 95.38417053222656 C 859.5318603515625 95.40728759765625 859.4871826171875 95.41886138916016 859.4425048828125 95.41886138916016 Z M 854.0191040039062 89.62879943847656 C 853.9744262695312 89.62879943847656 853.9297485351562 89.61723327636719 853.8899536132812 89.59410858154297 L 852.5988159179688 88.85141754150391 C 852.519287109375 88.80624389648438 852.4696044921875 88.72092437744141 852.4696044921875 88.62930297851562 L 852.4696044921875 87.14394378662109 C 852.4696044921875 87.05249786376953 852.519287109375 86.96809387207031 852.5988159179688 86.92182922363281 L 853.8899536132812 86.17913818359375 C 853.9297485351562 86.15654754638672 853.9744262695312 86.14525604248047 854.0191040039062 86.14525604248047 C 854.0638427734375 86.14525604248047 854.1085205078125 86.15654754638672 854.1482543945312 86.17913818359375 L 855.4395751953125 86.92182922363281 C 855.5191650390625 86.96809387207031 855.5686645507812 87.05249786376953 855.5686645507812 87.14394378662109 L 855.5686645507812 88.62930297851562 C 855.5686645507812 88.72092437744141 855.5191650390625 88.80624389648438 855.4395751953125 88.85141754150391 L 854.1482543945312 89.59410858154297 C 854.1084594726562 89.61723327636719 854.0637817382812 89.62879943847656 854.0191040039062 89.62879943847656 Z" stroke="none" fill="rgba(0,0,0,0.17)"/>
      </g>
    </g>
  </g>
</svg>
